<svg width="18" height="21" viewBox="0 0 18 21" fill="none" xmlns="http://www.w3.org/2000/svg">
<g id="Calendar">
<path id="Calendar_2" fill-rule="evenodd" clip-rule="evenodd" d="M13.4109 1.30292L13.4119 2.05934C16.1665 2.27719 17.9862 4.17125 17.9891 7.07588L18 15.578C18.0039 18.7448 16.0322 20.6934 12.8718 20.6984L5.15188 20.7085C2.01119 20.7125 0.0148166 18.7176 0.0108673 15.5417L6.64975e-06 7.13942C-0.00394266 4.21562 1.75153 2.3266 4.50617 2.07144L4.50518 1.31503C4.5042 0.871263 4.83001 0.537432 5.26444 0.537432C5.69886 0.536423 6.02468 0.869245 6.02567 1.31301L6.02666 2.019L11.8914 2.01093L11.8904 1.30494C11.8894 0.861177 12.2152 0.528355 12.6496 0.527346C13.0742 0.526337 13.4099 0.85916 13.4109 1.30292ZM1.52148 7.45106L16.4696 7.43089V7.0779C16.4272 4.90951 15.349 3.77186 13.4138 3.60242L13.4148 4.37901C13.4148 4.81269 13.0801 5.1566 12.6556 5.1566C12.2211 5.15761 11.8943 4.8147 11.8943 4.38103L11.8934 3.5641L6.02863 3.57217L6.02962 4.38809C6.02962 4.82277 5.70479 5.16568 5.27036 5.16568C4.83594 5.16669 4.50913 4.82479 4.50913 4.3901L4.50815 3.61352C2.58286 3.80817 1.51753 4.94985 1.52049 7.1374L1.52148 7.45106ZM12.2399 12.0349V12.046C12.2498 12.51 12.625 12.8619 13.0801 12.8519C13.5244 12.8408 13.8789 12.4565 13.869 11.9926C13.8483 11.5488 13.4918 11.1867 13.0485 11.1878C12.5944 11.1978 12.2389 11.571 12.2399 12.0349ZM13.0554 16.5633C12.6013 16.5533 12.235 16.171 12.234 15.7071C12.2241 15.2431 12.5884 14.8589 13.0426 14.8478H13.0525C13.5165 14.8478 13.8927 15.23 13.8927 15.7041C13.8937 16.1781 13.5185 16.5623 13.0554 16.5633ZM8.17212 12.0511C8.19187 12.515 8.56804 12.8771 9.02221 12.8569C9.46651 12.8357 9.82096 12.4525 9.80121 11.9885C9.79035 11.5347 9.42504 11.1817 8.98074 11.1827C8.52657 11.2029 8.17113 11.5871 8.17212 12.0511ZM9.02616 16.518C8.57199 16.5381 8.1968 16.1761 8.17607 15.7121C8.17607 15.2482 8.53052 14.8649 8.98469 14.8438C9.42899 14.8427 9.79529 15.1957 9.80516 15.6486C9.82589 16.1135 9.47046 16.4968 9.02616 16.518ZM4.10433 12.0864C4.12408 12.5503 4.50025 12.9134 4.95442 12.8922C5.39872 12.872 5.75317 12.4878 5.73243 12.0238C5.72256 11.57 5.35725 11.217 4.91196 11.218C4.45779 11.2382 4.10334 11.6224 4.10433 12.0864ZM4.95837 16.523C4.5042 16.5442 4.12901 16.1811 4.10828 15.7172C4.10729 15.2532 4.46273 14.869 4.9169 14.8488C5.3612 14.8478 5.7275 15.2008 5.73737 15.6546C5.7581 16.1186 5.40365 16.5028 4.95837 16.523Z" fill="#50B18E"/>
</g>
</svg>
